/* XPM */
static char * gnome_control_center_xpm[] = {
"32 32 326 2",
"  	c None",
". 	c #959791",
"+ 	c #C0C1BD",
"@ 	c #8F908B",
"# 	c #8E8F8B",
"$ 	c #F1F1F0",
"% 	c #F0F1F0",
"& 	c #979A94",
"* 	c #585A56",
"= 	c #90918B",
"- 	c #8D8E89",
"; 	c #B3B5B0",
"> 	c #F3F3F2",
", 	c #EEEEED",
"' 	c #898C87",
") 	c #5A5C59",
"! 	c #ADAFAC",
"~ 	c #DDDDDC",
"{ 	c #5B5D5A",
"] 	c #9A9C95",
"^ 	c #B3B5B1",
"/ 	c #8A8C87",
"( 	c #F2F2F2",
"_ 	c #FAFAFA",
": 	c #92948F",
"< 	c #5B5D59",
"[ 	c #838582",
"} 	c #D0D0CE",
"| 	c #D6D6D5",
"1 	c #C2C3C1",
"2 	c #979A93",
"3 	c #F9F9F9",
"4 	c #939490",
"5 	c #979894",
"6 	c #F6F7F6",
"7 	c #FCFCFB",
"8 	c #A5A7A3",
"9 	c #626460",
"0 	c #F7F7F7",
"a 	c #EDEEED",
"b 	c #D8D9D7",
"c 	c #5F625D",
"d 	c #8D8F8A",
"e 	c #D2D5D0",
"f 	c #868983",
"g 	c #878984",
"h 	c #A5A7A4",
"i 	c #F1F2F0",
"j 	c #F0F1EF",
"k 	c #FCFCFC",
"l 	c #A6A7A4",
"m 	c #5A5C58",
"n 	c #676964",
"o 	c #CBCBC9",
"p 	c #F9F9F8",
"q 	c #969693",
"r 	c #888985",
"s 	c #E7E8E6",
"t 	c #D8DAD6",
"u 	c #E7E7E5",
"v 	c #EAEBE9",
"w 	c #ECECEA",
"x 	c #E8E9E7",
"y 	c #F3F4F3",
"z 	c #E5E7E4",
"A 	c #E1E2E0",
"B 	c #858883",
"C 	c #5A5E58",
"D 	c #676965",
"E 	c #A5A7A2",
"F 	c #696C68",
"G 	c #626461",
"H 	c #5B5C58",
"I 	c #A4A7A3",
"J 	c #E7E8E5",
"K 	c #CDCFCA",
"L 	c #D4D6D2",
"M 	c #E0E1DE",
"N 	c #ECEDEB",
"O 	c #E8EAE7",
"P 	c #C2C4BE",
"Q 	c #D0D2CD",
"R 	c #C4C5C2",
"S 	c #686A66",
"T 	c #AAACA7",
"U 	c #696A66",
"V 	c #5D5F59",
"W 	c #9C9D98",
"X 	c #D8D9D6",
"Y 	c #E5E5E4",
"Z 	c #ECECEB",
"` 	c #CBCFC8",
" .	c #B6B8B2",
"..	c #B2B4AE",
"+.	c #D6D7D4",
"@.	c #5B5F59",
"#.	c #6A6B67",
"$.	c #ADB0AB",
"%.	c #696C67",
"&.	c #80827D",
"*.	c #8E918B",
"=.	c #E0E1DF",
"-.	c #C6C8C3",
";.	c #ADB0AA",
">.	c #B4B6B1",
",.	c #E2E3E1",
"'.	c #AFB0AE",
").	c #5D5E5B",
"!.	c #6B6E69",
"~.	c #B2B4B0",
"{.	c #696B68",
"].	c #81837E",
"^.	c #D1D2CF",
"/.	c #C4C6C2",
"(.	c #BEC0BB",
"_.	c #EEEEEE",
":.	c #B0B1AE",
"<.	c #5D5F5B",
"[.	c #6E706B",
"}.	c #B6B8B5",
"|.	c #6B6C68",
"1.	c #7F807A",
"2.	c #CECFCD",
"3.	c #D9D9D7",
"4.	c #DADBD9",
"5.	c #EBEBEB",
"6.	c #EFEFEF",
"7.	c #5C5E5B",
"8.	c #6F716E",
"9.	c #BBBDB9",
"0.	c #6A6D68",
"a.	c #7C7F7A",
"b.	c #D0D0CF",
"c.	c #ECECEC",
"d.	c #E7E7E7",
"e.	c #E4E5E4",
"f.	c #717270",
"g.	c #C0C1BE",
"h.	c #6B6D69",
"i.	c #D1D1D0",
"j.	c #E1E1E0",
"k.	c #979895",
"l.	c #797B77",
"m.	c #6C6D68",
"n.	c #7C7D79",
"o.	c #9A9B99",
"p.	c #7A7B78",
"q.	c #C9CBC7",
"r.	c #70726D",
"s.	c #747572",
"t.	c #61635F",
"u.	c #7B7D79",
"v.	c #CDCFCB",
"w.	c #70726E",
"x.	c #828380",
"y.	c #B7B7B6",
"z.	c #9C9D9A",
"A.	c #204B86",
"B.	c #244E89",
"C.	c #565D62",
"D.	c #787977",
"E.	c #D2D4D0",
"F.	c #898A88",
"G.	c #A5A6A3",
"H.	c #B4B5B2",
"I.	c #DFE0DD",
"J.	c #ACADAA",
"K.	c #214B87",
"L.	c #5A7EAE",
"M.	c #92ABC6",
"N.	c #828A8E",
"O.	c #D6D7D5",
"P.	c #6E6F6B",
"Q.	c #5E5F5C",
"R.	c #9D9E9C",
"S.	c #C5C6C4",
"T.	c #C1C3BF",
"U.	c #DBDCD9",
"V.	c #ABACA9",
"W.	c #6E706C",
"X.	c #355E94",
"Y.	c #97B4D4",
"Z.	c #4574AD",
"`.	c #507DB5",
" +	c #737C80",
".+	c #4F585D",
"++	c #6D6F6A",
"@+	c #C3C4C2",
"#+	c #BABCB7",
"$+	c #D7D8D5",
"%+	c #6D706B",
"&+	c #2E5790",
"*+	c #8DA7C5",
"=+	c #4D7AB1",
"-+	c #4A7AB3",
";+	c #5783B6",
">+	c #617CA1",
",+	c #173663",
"'+	c #C1C1BF",
")+	c #D2D3D0",
"!+	c #B6B9B4",
"~+	c #D0D1CD",
"{+	c #CDCECC",
"]+	c #787976",
"^+	c #204A87",
"/+	c #4A6FA3",
"(+	c #91ADCD",
"_+	c #507CB3",
":+	c #4B7BB4",
"<+	c #5881B3",
"[+	c #5978A2",
"}+	c #2C4A78",
"|+	c #173560",
"1+	c #6F716C",
"2+	c #BEC0BD",
"3+	c #CED0CD",
"4+	c #B0B2AC",
"5+	c #ADB0A9",
"6+	c #CECFCB",
"7+	c #E3E4E2",
"8+	c #BCBDBB",
"9+	c #A2A5A0",
"0+	c #90928F",
"a+	c #727571",
"b+	c #29508C",
"c+	c #7294BE",
"d+	c #89AAD1",
"e+	c #4372AC",
"f+	c #4D7CB5",
"g+	c #5780B3",
"h+	c #506B91",
"i+	c #1C3B69",
"j+	c #6B6D6A",
"k+	c #C4C5C3",
"l+	c #C3C6C1",
"m+	c #B7B9B4",
"n+	c #DFE1DD",
"o+	c #F4F5F3",
"p+	c #E5E6E4",
"q+	c #E6E7E5",
"r+	c #385F96",
"s+	c #8EAED2",
"t+	c #749BC7",
"u+	c #3D6DA9",
"v+	c #4D7DB5",
"w+	c #527DB2",
"x+	c #4D6B97",
"y+	c #1A3867",
"z+	c #DBDCDA",
"A+	c #D9DBD6",
"B+	c #F8F8F8",
"C+	c #DEDFDC",
"D+	c #E2E3E0",
"E+	c #CFD1CC",
"F+	c #E8E8E7",
"G+	c #2A518C",
"H+	c #87A7CC",
"I+	c #648EBF",
"J+	c #3A6AA7",
"K+	c #4E7DB6",
"L+	c #537FB5",
"M+	c #466899",
"N+	c #203F6C",
"O+	c #818380",
"P+	c #F8F8F7",
"Q+	c #EBECEA",
"R+	c #E6E8E4",
"S+	c #E4E4E3",
"T+	c #9B9D9A",
"U+	c #7A7C77",
"V+	c #DFDFDD",
"W+	c #757873",
"X+	c #224B89",
"Y+	c #7093BE",
"Z+	c #6B92C1",
"`+	c #5684B9",
" @	c #385D94",
".@	c #294977",
"+@	c #183462",
"@@	c #7E7F7B",
"#@	c #CCCCCA",
"$@	c #797A77",
"%@	c #FAFBFA",
"&@	c #9C9D99",
"*@	c #204987",
"=@	c #577CAB",
"-@	c #7095C3",
";@	c #5481B6",
">@	c #325A91",
",@	c #305284",
"'@	c #173462",
")@	c #767874",
"!@	c #F1F2F1",
"~@	c #ECEDEC",
"{@	c #6A6C68",
"]@	c #C5C6C3",
"^@	c #29528B",
"/@	c #7596C1",
"(@	c #3B6BA7",
"_@	c #4E7AAF",
":@	c #335A90",
"<@	c #294C7D",
"[@	c #183762",
"}@	c #60625D",
"|@	c #E1E2DF",
"1@	c #8D8E8B",
"2@	c #656663",
"3@	c #244980",
"4@	c #5779A2",
"5@	c #4773AA",
"6@	c #34588E",
"7@	c #214271",
"8@	c #16335E",
"9@	c #81827E",
"0@	c #5E605D",
"a@	c #264779",
"b@	c #496487",
"c@	c #345585",
"d@	c #1B3B68",
"e@	c #132C51",
"f@	c #7D7F7B",
"g@	c #80837D",
"h@	c #17345E",
"i@	c #15335B",
"j@	c #575855",
"k@	c #5E605C",
"                                                                ",
"            . + @                                               ",
"            # $ % &                                     *       ",
"  = -         ; > , '                               ) ! ~ {     ",
"  ] ^         / ( _ :                           < [ } | 1 )     ",
"  2 3 4       5 6 7 8                           9 0 a b c       ",
"  d % e f g h i j k l                         m n o p q         ",
"  r s t u v w x y z A B                     C D E F G H         ",
"    I J K L M N O P Q R                   { S T U V             ",
"      W X Y Z v `  ...+.!               @.#.$.%.)               ",
"            &.*.=.-.;.>.,.'.          ).!.~.{.m                 ",
"                ].^./.(.^._.:.      <.[.}.|.<                   ",
"                  1.2.3.4.5.6.'.  7.8.9.0.).                    ",
"                    a.b.c.d.e.c.].f.g.h.{                       ",
"                      a.i.c.j.k.l./.m.<                         ",
"                        n.2.o.p.q.r.s.t.                        ",
"                          n u.v.w.x.y.z.                        ",
"                    A.B.C.D.E.8.F.G.H.I.J.w.                    ",
"                  K.L.M.N.O.P.Q.R.S./.T.U.V.W.                  ",
"                  X.Y.Z.`. +.+  ++@++.(.#+$+V.%+                ",
"                &+*+=+-+;+>+,+    8.'+)+!+; ~+{+]+              ",
"            ^+/+(+_+:+<+[+}+|+      1+2+3+4+5+6+7+8+9+0+a+      ",
"          b+c+d+e+f+g+h+i+            j+k+l+m+n+o+% v p+q+l.    ",
"        r+s+t+u+v+w+x+y+                1+z+A+B+v C+n+D+E+F+#.  ",
"      G+H+I+J+K+L+M+N+                    O+P+Q+R+S+T+U+V+v W+  ",
"    X+Y+Z+J+K+`+ @.@+@                    @@P+q+#@F     $@%@&@  ",
"  *@=@-@J+K+;@>@,@'@                      )@!@~@{@        ]@5   ",
"  ^@/@(@K+_@:@<@[@                        }@s |@1@        2@{@  ",
"  3@4@f+5@6@7@8@                            9@x s 0@            ",
"    a@b@c@d@e@                                f@e.g@            ",
"      h@i@                                      j@k@            ",
"                                                                "};
